<svg xmlns="http://www.w3.org/2000/svg" viewBox="0 0 240 240">
<rect width="240" height="240" fill="white"/>
<rect x="18" y="18" width="58" height="58" fill="#111"/><rect x="29" y="29" width="36" height="36" fill="white"/><rect x="40" y="40" width="14" height="14" fill="#111"/>
<rect x="164" y="18" width="58" height="58" fill="#111"/><rect x="175" y="29" width="36" height="36" fill="white"/><rect x="186" y="40" width="14" height="14" fill="#111"/>
<rect x="18" y="164" width="58" height="58" fill="#111"/><rect x="29" y="175" width="36" height="36" fill="white"/><rect x="40" y="186" width="14" height="14" fill="#111"/>
<g fill="#111">
<rect x="92" y="20" width="12" height="12"/><rect x="116" y="20" width="24" height="12"/><rect x="146" y="32" width="12" height="12"/>
<rect x="92" y="56" width="24" height="12"/><rect x="128" y="56" width="12" height="24"/><rect x="152" y="62" width="12" height="12"/>
<rect x="92" y="94" width="12" height="24"/><rect x="116" y="92" width="12" height="12"/><rect x="138" y="98" width="30" height="12"/>
<rect x="174" y="96" width="16" height="16"/><rect x="206" y="102" width="12" height="12"/>
<rect x="94" y="128" width="16" height="16"/><rect x="122" y="120" width="12" height="34"/><rect x="148" y="130" width="12" height="12"/>
<rect x="174" y="130" width="22" height="12"/><rect x="208" y="126" width="12" height="22"/>
<rect x="94" y="174" width="12" height="12"/><rect x="116" y="166" width="34" height="12"/><rect x="158" y="178" width="12" height="22"/>
<rect x="180" y="166" width="42" height="12"/><rect x="186" y="190" width="12" height="28"/><rect x="208" y="202" width="16" height="16"/>
<rect x="92" y="206" width="22" height="12"/><rect x="122" y="196" width="16" height="22"/><rect x="150" y="212" width="12" height="12"/>
</g>
<text x="120" y="235" font-size="10" text-anchor="middle" fill="#333">发布后替换为真实二维码</text>
</svg>